<?xml version="1.0" ?><!DOCTYPE svg  PUBLIC '-//W3C//DTD SVG 1.1//EN'  'http://www.w3.org/Graphics/SVG/1.1/DTD/svg11.dtd'><svg xmlns="http://www.w3.org/2000/svg" xmlns:xlink="http://www.w3.org/1999/xlink" version="1.1" id="Layer_1" width="248.793" height="246" viewBox="0 0 248.793 246" overflow="visible" enable-background="new 0 0 248.793 246" xml:space="preserve"><path fill="#FFDFD1" d="M149.448,27.391c-20.093,21.164-19.224,54.608,1.938,74.7c21.162,20.092,54.606,19.223,74.699-1.939  c20.094-21.164,16.568-88.21,10.744-88.06C236.829,12.093,169.54,6.229,149.448,27.391z"/><path opacity="0.15" fill="#6E6E96" enable-background="new    " d="M236.912,12.093c0,0-33.167,5.879-33.167,15.575  c0,9.695,21.983,25.7,28.376,57.149c0,0-24.421-50.512-67.764-66.434C164.357,18.382,197.688,5.803,236.912,12.093z"/><path fill="#FFDFD1" d="M99.848,27.391c20.092,21.164,19.225,54.608-1.939,74.7c-21.164,20.092-54.606,19.225-74.699-1.939  C3.117,78.989,6.64,11.941,12.466,12.093C12.466,12.093,79.755,6.229,99.848,27.391z"/><circle fill="#EDCFC2" cx="124.779" cy="126.719" r="115.372"/><circle fill="#FFDFD1" cx="117.489" cy="116.636" r="104.864"/><path opacity="0.15" fill="#6E6E96" enable-background="new    " d="M175.68,167.115c0,18.664-17.451,33.934-38.781,33.934H114.6  c-21.329,0-38.78-15.27-38.78-33.934c0-18.662,17.451-33.934,38.78-33.934h22.298C158.229,133.184,175.68,148.453,175.68,167.115z"/><path fill="#FFE8DE" d="M175.193,155.158c0,18.662-17.451,33.933-38.78,33.933h-22.298c-21.33,0-38.781-15.271-38.781-33.933  c0-18.663,17.451-33.933,38.781-33.933h22.298C157.742,121.225,175.193,136.495,175.193,155.158z"/><path fill="#FFF3F0" d="M135.432,121h-21.598c-20.658,0-37.561,15.291-37.561,33.979c0,7.825,2.972,15.048,7.934,20.812  c-3.781-4.556-5.995-10.022-5.995-15.884c0-15.774,16.002-28.682,35.561-28.682h20.448c19.559,0,35.561,12.907,35.561,28.682  c0,15.775-16.004,28.682-35.561,28.682h-20.448c-9.135,0-17.492-2.817-23.807-7.424c6.501,4.862,14.825,7.793,23.869,7.793h21.599  c20.657,0,37.561-15.291,37.561-33.979S156.09,121,135.432,121z"/><circle fill="#6E6E96" cx="105.895" cy="160.5" r="9.322"/><circle fill="#6E6E96" cx="145.934" cy="160.5" r="9.322"/><ellipse fill="#6E6E96" cx="98.949" cy="75.335" rx="8.672" ry="13.573"/><ellipse fill="#6E6E96" cx="147.65" cy="75.335" rx="8.673" ry="13.573"/><path opacity="0.15" fill="#6E6E96" enable-background="new    " d="M12.466,12.093c0,0,33.167,5.879,33.167,15.575  c0,9.695-21.984,25.7-28.375,57.148c0,0,24.42-50.512,67.763-66.434C85.021,18.382,51.689,5.803,12.466,12.093z"/></svg>