<?xml version="1.0" ?><svg xmlns="http://www.w3.org/2000/svg" width="64" height="64" viewBox="0 0 64 64" fill="none"><path d="M41.9997 35.9996C39.9097 35.9996 38.0697 34.9296 36.9997 33.3096C35.9297 34.9296 34.0897 35.9996 31.9997 35.9996C29.9097 35.9996 28.0697 34.9296 26.9997 33.3096C25.9297 34.9296 24.0897 35.9996 21.9997 35.9996C21.8297 35.9996 21.6597 35.9896 21.4897 35.9696L31.9997 59.9996L42.5097 35.9696C42.3397 35.9796 42.1697 35.9996 41.9997 35.9996Z" fill="#592C87"/><g opacity="0.3"><mask id="mask0_289_409" style="mask-type:luminance" maskUnits="userSpaceOnUse" x="21" y="33" width="22" height="27"><path d="M41.9997 35.9996C39.9097 35.9996 38.0697 34.9296 36.9997 33.3096C35.9297 34.9296 34.0897 35.9996 31.9997 35.9996C29.9097 35.9996 28.0697 34.9296 26.9997 33.3096C25.9297 34.9296 24.0897 35.9996 21.9997 35.9996C21.8297 35.9996 21.6597 35.9896 21.4897 35.9696L31.9997 59.9996L42.5097 35.9696C42.3397 35.9796 42.1697 35.9996 41.9997 35.9996Z" fill="white"/></mask><g mask="url(#mask0_289_409)"><path d="M38.3719 56.5328L32.7151 62.1897L38.3719 67.8466L44.0288 62.1897L38.3719 56.5328Z" fill="white"/><path d="M44.7247 50.1613L39.0679 55.8181L44.7247 61.475L50.3816 55.8181L44.7247 50.1613Z" fill="white"/><path d="M31.9933 50.1627L26.3364 55.8196L31.9933 61.4764L37.6501 55.8196L31.9933 50.1627Z" fill="white"/><path d="M38.3705 43.8014L32.7136 49.4583L38.3705 55.1151L44.0273 49.4583L38.3705 43.8014Z" fill="white"/><path d="M25.6403 56.5343L19.9834 62.1912L25.6403 67.848L31.2971 62.1912L25.6403 56.5343Z" fill="white"/><path d="M25.6388 43.8029L19.9819 49.4597L25.6388 55.1166L31.2956 49.4597L25.6388 43.8029Z" fill="white"/><path d="M31.9989 37.4484L26.342 43.1052L31.9989 48.7621L37.6557 43.1052L31.9989 37.4484Z" fill="white"/><path d="M44.7303 37.4469L39.0735 43.1038L44.7303 48.7606L50.3872 43.1038L44.7303 37.4469Z" fill="white"/><path d="M38.3688 31.07L32.7119 36.7268L38.3688 42.3837L44.0256 36.7268L38.3688 31.07Z" fill="white"/><path d="M19.2789 50.1571L13.6221 55.814L19.2789 61.4708L24.9358 55.814L19.2789 50.1571Z" fill="white"/><path d="M19.2845 37.4428L13.6277 43.0996L19.2845 48.7565L24.9414 43.0996L19.2845 37.4428Z" fill="white"/><path d="M25.6373 31.0714L19.9805 36.7283L25.6373 42.3851L31.2942 36.7283L25.6373 31.0714Z" fill="white"/><path d="M31.9974 24.7169L26.3406 30.3738L31.9974 36.0306L37.6543 30.3738L31.9974 24.7169Z" fill="white"/><path d="M44.7289 24.7155L39.072 30.3723L44.7289 36.0292L50.3857 30.3723L44.7289 24.7155Z" fill="white"/><path d="M19.2831 24.7113L13.6262 30.3682L19.2831 36.025L24.9399 30.3682L19.2831 24.7113Z" fill="white"/></g></g><g opacity="0.3"><path d="M41.5897 38.9898C39.9297 38.9098 38.3597 38.3998 36.9997 37.4898C35.5297 38.4698 33.7797 39.0098 31.9997 39.0098C30.2197 39.0098 28.4697 38.4798 26.9996 37.4898C25.6496 38.3998 24.0696 38.9098 22.4096 38.9898L21.7196 39.0198L19.8896 34.8398L21.5596 34.9798C21.6996 34.9898 21.8396 34.9998 21.9896 34.9998C23.6696 34.9998 25.2296 34.1598 26.1596 32.7598L26.9896 31.5098L27.8196 32.7598C28.7496 34.1598 30.3096 34.9998 31.9896 34.9998C33.6696 34.9998 35.2297 34.1598 36.1597 32.7598L36.9896 31.5098L37.8197 32.7598C38.7497 34.1598 40.3096 34.9998 41.9896 34.9998C42.1296 34.9998 42.2796 34.9898 42.4196 34.9798L44.0897 34.8398L42.2597 39.0198L41.5697 38.9898H41.5897Z" fill="#2E1051"/></g><path d="M45.8498 28C47.2098 25.64 48.0098 22.92 48.0098 20C48.0098 11.16 40.8498 4 32.0098 4C23.1698 4 16.0098 11.16 16.0098 20C16.0098 22.92 16.7998 25.64 18.1698 28H45.8498Z" fill="#2CCBD1"/><path d="M42 36C45.3137 36 48 33.3137 48 30C48 26.6863 45.3137 24 42 24C38.6863 24 36 26.6863 36 30C36 33.3137 38.6863 36 42 36Z" fill="#2CCBD1"/><path opacity="0.3" d="M44.8297 28.1801C44.5697 28.1801 44.3197 28.0801 44.1197 27.8901C42.9497 26.7201 41.0498 26.7201 39.8797 27.8901C39.4897 28.2801 38.8597 28.2801 38.4697 27.8901C38.0797 27.5001 38.0797 26.8701 38.4697 26.4801C40.4197 24.5301 43.5898 24.5301 45.5398 26.4801C45.9298 26.8701 45.9298 27.5001 45.5398 27.8901C45.3398 28.0901 45.0897 28.1801 44.8297 28.1801Z" fill="white"/><path d="M32 36C35.3137 36 38 33.3137 38 30C38 26.6863 35.3137 24 32 24C28.6863 24 26 26.6863 26 30C26 33.3137 28.6863 36 32 36Z" fill="#2CCBD1"/><path opacity="0.3" d="M34.8297 28.1801C34.5697 28.1801 34.3197 28.0801 34.1197 27.8901C32.9497 26.7201 31.0498 26.7201 29.8797 27.8901C29.4897 28.2801 28.8597 28.2801 28.4697 27.8901C28.0797 27.5001 28.0797 26.8701 28.4697 26.4801C30.4197 24.5301 33.5898 24.5301 35.5398 26.4801C35.9298 26.8701 35.9298 27.5001 35.5398 27.8901C35.3398 28.0901 35.0897 28.1801 34.8297 28.1801Z" fill="white"/><path d="M36.2501 26.7597C35.9901 26.7597 35.7401 26.6597 35.5401 26.4697C33.5901 24.5197 30.4201 24.5197 28.4701 26.4697C28.0801 26.8597 27.4501 26.8597 27.0601 26.4697C26.6701 26.0797 26.6701 25.4497 27.0601 25.0597C29.7901 22.3297 34.2301 22.3297 36.9601 25.0597C37.3501 25.4497 37.3501 26.0797 36.9601 26.4697C36.7601 26.6697 36.5101 26.7597 36.2501 26.7597Z" fill="#2E1051"/><path d="M22 36C25.3137 36 28 33.3137 28 30C28 26.6863 25.3137 24 22 24C18.6863 24 16 26.6863 16 30C16 33.3137 18.6863 36 22 36Z" fill="#2CCBD1"/><path opacity="0.3" d="M24.8297 28.1801C24.5697 28.1801 24.3197 28.0801 24.1197 27.8901C22.9497 26.7201 21.0498 26.7201 19.8797 27.8901C19.4897 28.2801 18.8597 28.2801 18.4697 27.8901C18.0797 27.5001 18.0797 26.8701 18.4697 26.4801C20.4197 24.5301 23.5898 24.5301 25.5398 26.4801C25.9298 26.8701 25.9298 27.5001 25.5398 27.8901C25.3398 28.0901 25.0897 28.1801 24.8297 28.1801Z" fill="white"/><path d="M42 37C40.1 37 38.3 36.23 37 34.9C35.7 36.23 33.9 37 32 37C30.1 37 28.3 36.23 27 34.9C25.7 36.23 23.9 37 22 37C18.14 37 15 33.86 15 30C15 28.61 15.4 27.29 16.16 26.15C15.39 24.18 15 22.12 15 20C15 10.63 22.63 3 32 3C41.37 3 49 10.63 49 20C49 22.11 48.61 24.18 47.84 26.15C48.6 27.3 49 28.62 49 30C49 33.86 45.86 37 42 37ZM37 32.31C37.33 32.31 37.65 32.48 37.83 32.76C38.76 34.16 40.32 35 42 35C44.76 35 47 32.76 47 30C47 28.87 46.63 27.79 45.92 26.9C45.69 26.61 45.64 26.22 45.79 25.88C46.6 24 47.01 22.02 47.01 19.99C47.01 11.72 40.28 4.99 32.01 4.99C23.74 4.99 17.01 11.72 17.01 19.99C17.01 22.02 17.42 24 18.23 25.88C18.38 26.22 18.32 26.61 18.1 26.9C17.39 27.79 17.02 28.86 17.02 30C17.02 32.76 19.26 35 22.02 35C23.7 35 25.26 34.16 26.19 32.76C26.56 32.2 27.48 32.2 27.86 32.76C28.79 34.16 30.35 35 32.03 35C33.71 35 35.27 34.16 36.2 32.76C36.39 32.48 36.7 32.31 37.03 32.31H37Z" fill="#2E1051"/><path d="M31.9997 60.9998C31.5997 60.9998 31.2397 60.7598 31.0797 60.3998L20.5697 36.3698C20.4297 36.0498 20.4697 35.6698 20.6697 35.3898C20.8797 35.0998 21.2197 34.9398 21.5697 34.9798C23.3497 35.1298 25.1497 34.2898 26.1597 32.7598C26.5297 32.1998 27.4497 32.1998 27.8297 32.7598C28.7597 34.1598 30.3197 34.9998 31.9997 34.9998C33.6797 34.9998 35.2397 34.1598 36.1697 32.7598C36.5397 32.1998 37.4597 32.1998 37.8397 32.7598C38.8497 34.2798 40.6497 35.1198 42.4297 34.9798C42.7797 34.9498 43.1197 35.1098 43.3297 35.3898C43.5297 35.6798 43.5697 36.0498 43.4297 36.3698L32.9197 60.3998C32.7597 60.7598 32.3997 60.9998 31.9997 60.9998ZM22.9997 36.9298L31.9997 57.5098L40.9997 36.9298C39.4797 36.7098 38.0697 35.9998 36.9997 34.8998C35.6997 36.2298 33.8997 36.9998 31.9997 36.9998C30.0997 36.9998 28.2997 36.2298 26.9997 34.8998C25.9297 35.9998 24.5197 36.7098 22.9997 36.9298Z" fill="#2E1051"/><path d="M16 31C15.45 31 15 30.55 15 30C15 26.14 18.14 23 22 23C22.55 23 23 23.45 23 24C23 24.55 22.55 25 22 25C19.24 25 17 27.24 17 30C17 30.55 16.55 31 16 31Z" fill="#2E1051"/><path d="M48 31C47.45 31 47 30.55 47 30C47 27.24 44.76 25 42 25C41.45 25 41 24.55 41 24C41 23.45 41.45 23 42 23C45.86 23 49 26.14 49 30C49 30.55 48.55 31 48 31Z" fill="#2E1051"/><path opacity="0.3" d="M42.3797 14.9995C42.0397 14.9995 41.6997 14.8195 41.5097 14.4995C40.9597 13.5495 40.2197 12.6595 39.3297 11.8495C38.9197 11.4795 38.8897 10.8495 39.2597 10.4395C39.6297 10.0295 40.2597 9.99954 40.6697 10.3695C41.7197 11.3195 42.5797 12.3695 43.2397 13.4995C43.5197 13.9795 43.3597 14.5895 42.8797 14.8695C42.7197 14.9595 42.5497 15.0095 42.3797 15.0095V14.9995Z" fill="white"/><path opacity="0.3" d="M21.6296 14.9996C21.4596 14.9996 21.2896 14.9596 21.1296 14.8596C20.6496 14.5796 20.4896 13.9696 20.7696 13.4896C23.8196 8.22956 30.3096 5.60956 36.3496 7.76956C36.8696 7.95956 37.1396 8.52956 36.9596 9.04956C36.7696 9.56956 36.1996 9.83956 35.6796 9.65956C30.5296 7.81956 25.0896 10.0596 22.4996 14.4996C22.3096 14.8196 21.9796 14.9996 21.6296 14.9996Z" fill="white"/></svg>