<?xml version="1.0" ?><!DOCTYPE svg  PUBLIC '-//W3C//DTD SVG 1.1//EN'  'http://www.w3.org/Graphics/SVG/1.1/DTD/svg11.dtd'><svg xmlns="http://www.w3.org/2000/svg" xmlns:xlink="http://www.w3.org/1999/xlink" xmlns:serif="http://www.serif.com/" width="100%" height="100%" viewBox="0 0 512 512" version="1.1" xml:space="preserve" style="fill-rule:evenodd;clip-rule:evenodd;stroke-linejoin:round;stroke-miterlimit:2;"><g transform="matrix(1,0,0,1,-1686,-2810)"><g id="Icons"><path d="M1817.69,2953.55C1815.81,2948.04 1813.47,2943.34 1811.27,2937.27C1803.62,2916.17 1795.16,2892.76 1779.01,2876.53C1768.94,2866.4 1755.59,2860.09 1743.53,2852.72C1735.32,2847.7 1727.05,2842.76 1719.29,2837.05C1718.21,2836.27 1714.44,2832.79 1712.46,2831.73C1710.25,2830.55 1708.4,2831.05 1707.48,2831.62C1703.04,2834.32 1701.04,2839.82 1700.07,2844.61C1698.06,2854.6 1700.48,2865.12 1703.07,2874.76C1710.16,2901.08 1721.26,2926 1732.42,2950.79C1737.03,2961.02 1744.18,2974.37 1753.8,2982.08C1749.57,2984.95 1745.48,2988.11 1741.77,2991.51C1734.28,2998.38 1728.39,3006.25 1725.88,3014.66C1722.25,3026.9 1724.27,3039.49 1724.99,3052L1724.99,3052C1722.17,3056.87 1718.74,3061.96 1715.99,3067.29C1712.76,3073.55 1710.46,3080.13 1710.66,3087.02C1710.83,3092.78 1712.54,3098.35 1714.32,3103.85C1715.86,3108.63 1717.46,3113.35 1717.66,3118.16C1717.66,3118.19 1717.66,3118.21 1717.66,3118.23C1718.5,3139.82 1718.06,3160.77 1728.49,3180.44C1741.67,3205.33 1762.79,3225.74 1775.86,3251.19C1778.34,3256.01 1779.35,3259 1778.66,3261.18C1778.11,3262.95 1776.26,3263.65 1774.13,3264.55C1769.45,3266.53 1763.23,3268.22 1757.37,3272.03C1754.36,3273.97 1749.27,3277.53 1746.5,3281.6C1743.97,3285.32 1743.18,3289.42 1745.41,3293.47C1746.26,3295.02 1747.29,3296.42 1748.47,3297.68C1748.62,3297.87 1748.79,3298.04 1748.98,3298.2C1754.05,3303.24 1761.7,3305.87 1770.41,3306.89C1772.31,3307.12 1774.26,3307.27 1776.24,3307.36C1776.4,3307.38 1776.55,3307.39 1776.71,3307.39C1789.84,3307.95 1804.12,3306.04 1812.94,3306.23C1812.99,3306.23 1813.04,3306.23 1813.09,3306.23C1841.35,3306.88 1869.48,3312.38 1897.76,3308.36C1915.98,3305.77 1933.48,3297.18 1951.06,3291.95C1967.56,3287.04 1985.54,3285.54 2002.56,3283.18C2008.59,3282.34 2012.64,3282.9 2015.68,3284.44C2015.72,3284.46 2015.75,3284.47 2015.78,3284.49C2015.82,3284.51 2015.86,3284.53 2015.89,3284.55C2019.03,3286.2 2021.07,3288.81 2023.24,3291.48C2027,3296.08 2031,3300.88 2038.48,3303.75C2046.88,3306.97 2058.88,3308.72 2071.94,3309.48C2072.39,3309.59 2072.88,3309.62 2073.37,3309.56C2095.97,3310.74 2121.43,3309.03 2136.83,3306.83C2142.82,3305.97 2149.33,3305.12 2155.12,3303.02C2161.6,3300.68 2167.2,3296.83 2170.64,3290.17C2179.46,3273.11 2181.95,3253.05 2183.77,3234.24C2190.87,3160.54 2156.41,3097.01 2104.14,3047.69C2080.6,3025.48 2052.44,3006.66 2020.2,3000.12C1992.94,2994.6 1958.68,2999.03 1932.96,3008.93C1926.47,3011.44 1916.36,3016.67 1906.91,3018.59C1901.69,3019.64 1896.67,3019.79 1893,3016.97C1890.19,3014.8 1890.79,3011.16 1891.99,3007.36C1894.51,2999.39 1900.93,2990.7 1903.71,2986.68C1930.58,2947.86 1946.59,2919.65 1941.86,2870.69C1940.65,2858.19 1937.8,2845.5 1932.31,2834.17C1931.66,2832.84 1929.07,2826.86 1927.09,2824.43C1925.71,2822.74 1924.13,2822.12 1923.04,2822.04C1919.07,2821.76 1913.85,2823.11 1908.54,2825.33C1901.32,2828.33 1893.84,2832.83 1889.45,2835.67C1856.85,2856.83 1847.12,2887.79 1832.52,2921.96C1828.47,2931.43 1825.89,2943.33 1819.45,2951.54C1818.89,2952.26 1818.3,2952.93 1817.69,2953.55ZM1883.48,3008.42C1883.69,3007.28 1883.99,3006.12 1884.36,3004.95C1887.13,2996.18 1894.07,2986.55 1897.13,2982.13C1922.79,2945.05 1938.41,2918.22 1933.9,2871.46C1932.78,2859.89 1930.18,2848.14 1925.11,2837.66C1924.72,2836.86 1923.57,2834.14 1922.31,2831.8C1922.01,2831.22 1921.55,2830.51 1921.22,2830.01C1918.44,2830.15 1915.07,2831.27 1911.62,2832.71C1904.87,2835.52 1897.9,2839.73 1893.81,2842.38C1862.67,2862.59 1853.82,2892.47 1839.87,2925.11C1835.57,2935.18 1832.6,2947.74 1825.74,2956.48C1823.42,2959.44 1820.78,2961.79 1817.91,2963.72C1817.8,2963.8 1817.69,2963.87 1817.58,2963.93C1813.33,2966.72 1808.58,2968.58 1803.6,2970.06C1796.05,2972.31 1787.95,2973.64 1780.62,2976.66C1780.59,2976.68 1780.55,2976.7 1780.51,2976.71C1775.27,2978.89 1769.29,2981.84 1763.37,2985.44C1763.27,2985.5 1763.17,2985.57 1763.06,2985.62C1757.49,2989.03 1751.98,2992.99 1747.17,2997.4C1740.82,3003.23 1735.67,3009.81 1733.55,3016.94C1730.06,3028.68 1732.44,3040.77 1733.05,3052.76C1733.09,3053.52 1732.91,3054.27 1732.53,3054.93C1729.65,3060.03 1725.99,3065.36 1723.1,3070.96C1720.5,3075.99 1718.5,3081.24 1718.66,3086.79C1718.8,3091.8 1720.39,3096.61 1721.93,3101.39C1723.68,3106.83 1725.4,3112.22 1725.64,3117.69C1726.2,3121.61 1728.81,3124.73 1732.67,3127.29C1736.24,3129.66 1740.81,3131.54 1746.1,3132.95C1765.42,3138.11 1793.68,3137.2 1817.85,3130.44C1844.5,3122.98 1866.15,3108.41 1865.5,3086.78C1867.69,3113.47 1836,3131.36 1801.68,3138.58C1778.98,3143.36 1755.15,3143.37 1739.04,3138.37C1733.91,3136.78 1729.53,3134.65 1726.12,3132.06C1726.68,3147.47 1728.01,3162.45 1735.56,3176.7C1748.76,3201.62 1769.89,3222.05 1782.98,3247.54C1786.89,3255.15 1787.38,3260.15 1786.29,3263.59C1785.08,3267.44 1781.88,3269.95 1777.25,3271.92C1772.93,3273.75 1767.13,3275.22 1761.72,3278.74C1759.71,3280.04 1756.48,3282.17 1754.18,3284.74C1752.85,3286.24 1751.5,3287.82 1752.37,3289.53C1753.59,3288.79 1754.83,3288.2 1756.15,3287.77C1760.26,3286.42 1764.25,3286.23 1768.61,3286.45C1765.51,3287.77 1762.82,3289.23 1760.2,3291.24C1759.03,3292.14 1758.11,3293.19 1757.08,3294.33C1757.03,3294.38 1756.98,3294.44 1756.93,3294.5C1760.71,3297.07 1765.81,3298.3 1771.35,3298.95C1772.47,3299.08 1773.6,3299.19 1774.74,3299.27C1779.25,3293.34 1783.93,3288.16 1788.85,3283.78C1798.23,3275.42 1808.29,3269.78 1818.91,3266.45C1836.32,3261 1855.17,3261.81 1875.13,3267.28C1855.31,3263.53 1836.94,3264.14 1820.43,3270.72C1810.79,3274.56 1801.88,3280.52 1793.61,3288.81C1790.41,3292.02 1787.31,3295.57 1784.32,3299.51C1793.87,3299.38 1803.42,3298.36 1810.46,3298.23C1810.67,3297.79 1810.89,3297.36 1811.14,3296.95C1813.04,3293.76 1815.37,3291.18 1818.26,3289.13C1821.99,3286.49 1826.25,3284.77 1831.2,3283.66C1827.17,3286.15 1823.97,3288.96 1821.42,3292.38C1820.2,3294.01 1819.33,3295.78 1818.52,3297.69C1818.42,3297.92 1818.33,3298.16 1818.24,3298.4C1844.4,3299.5 1870.45,3304.16 1896.64,3300.44C1914.47,3297.91 1931.57,3289.4 1948.78,3284.28C1965.66,3279.26 1984.05,3277.67 2001.46,3275.25C2007.87,3274.37 2012.62,3274.77 2016.38,3276.01C2021.46,3269.94 2026.87,3264.72 2032.59,3260.39C2043.45,3252.17 2055.26,3247.01 2067.37,3244.58C2087.93,3240.45 2109.27,3244.25 2128.19,3254.6C2109.08,3245.89 2088.11,3243.6 2068.41,3248.99C2057.28,3252.03 2046.64,3257.59 2036.92,3265.8C2032.13,3269.84 2027.57,3274.51 2023.32,3279.89C2024.57,3280.93 2025.7,3282.07 2026.78,3283.27C2030.74,3287.67 2033.69,3293.35 2041.34,3296.28C2048.38,3298.97 2058.05,3300.57 2068.73,3301.38C2068.75,3300.84 2068.79,3300.31 2068.84,3299.79C2069.39,3294.71 2071.07,3290.14 2073.88,3286.01C2077.32,3280.95 2082.22,3276.65 2088.41,3272.83C2083.55,3277.71 2080,3282.74 2077.88,3288.13C2076.8,3290.88 2076.27,3293.67 2076.07,3296.6C2075.95,3298.3 2076,3300.03 2076.24,3301.81C2097.56,3302.71 2121.25,3300.98 2135.7,3298.91C2141.16,3298.13 2147.11,3297.41 2152.4,3295.5C2157,3293.83 2161.09,3291.23 2163.53,3286.49C2171.89,3270.34 2174.09,3251.3 2175.8,3233.47C2182.66,3162.33 2149.11,3101.12 2098.65,3053.51C2076.18,3032.31 2049.39,3014.2 2018.61,3007.96C1992.75,3002.72 1960.24,3007 1935.84,3016.4C1929.03,3019.02 1918.4,3024.42 1908.5,3026.43C1900.81,3027.99 1893.53,3027.47 1888.12,3023.31C1887.94,3023.17 1887.77,3023.02 1887.59,3022.88C1882.78,3018.95 1878.61,3014.73 1875.08,3010.19C1866.22,2998.77 1861.19,2985.55 1859,2971.06C1855.04,2944.93 1860.33,2914.63 1868.03,2883.22C1862.35,2914.56 1858.96,2944.63 1864.29,2970.11C1867.07,2983.36 1872.28,2995.29 1880.88,3005.5C1881.72,3006.49 1882.58,3007.46 1883.48,3008.42ZM1810.91,2958.62C1808.98,2951.94 1806.25,2946.89 1803.75,2939.99C1796.48,2919.95 1788.68,2897.59 1773.34,2882.17C1763.72,2872.49 1750.88,2866.59 1739.35,2859.54C1730.95,2854.41 1722.49,2849.34 1714.54,2843.5C1713.93,2843.05 1711.6,2841.16 1710.07,2839.91C1708.79,2841.66 1708.33,2844.12 1707.91,2846.19C1706.14,2854.97 1708.52,2864.2 1710.8,2872.68C1717.78,2898.59 1728.73,2923.1 1739.72,2947.51C1744.24,2957.54 1751.14,2971.28 1761.08,2977.5C1765.9,2974.67 1770.7,2972.26 1775.12,2970.32C1775.24,2964.57 1775.05,2958.98 1774.64,2953.51C1773.89,2943.45 1772.37,2933.84 1770.12,2924.53C1766.19,2908.21 1760.3,2892.9 1753.45,2877.97C1761.71,2892.36 1769.11,2907.2 1774.48,2923.28C1777.61,2932.67 1780.06,2942.44 1781.53,2952.76C1782.21,2957.51 1782.64,2962.38 1782.87,2967.36C1788.94,2965.45 1795.29,2964.19 1801.32,2962.4C1804.66,2961.4 1807.91,2960.24 1810.91,2958.62Z"/></g></g></svg>